<?xml version="1.0" standalone="no" ?>
<!DOCTYPE svg PUBLIC "-//W3C//DTD SVG 1.1//EN" "http://www.w3.org/Graphics/SVG/1.1/DTD/svg11.dtd">
<svg width="694px" height="231px" viewBox="0 0 694 231" style="background-color: #ffffff00" xmlns="http://www.w3.org/2000/svg" xmlns:xlink="http://www.w3.org/1999/xlink" version="1.1" >
<path stroke="none" fill="#000000" transform="matrix(0.05 0 0 0.05 -61 -77)" d="M 7451.5,2248.43 L 7457.36,2245.05 L 7463.21,2248.43 L 7463.21,2529.66 L 7451.21,2536.6 L 7451.5,2248.43 Z " />
<path stroke="none" fill="#000000" transform="matrix(0.05 0 0 0.05 -61 -77)" d="M 7503.2,2274.98 L 7515.2,2274.98 L 7515.2,2503.12 L 7503.2,2503.12 L 7503.2,2274.98 Z " />
<path stroke="none" fill="#000000" transform="matrix(0.05 0 0 0.05 -61 -77)" d="M 7451.21,2536.6 L 7463.21,2529.66 L 7706.77,2670.28 L 7706.77,2684.14 L 7451.21,2536.6 Z " />
<path stroke="none" fill="#000000" transform="matrix(0.05 0 0 0.05 -61 -77)" d="M 7706.77,2684.14 L 7706.77,2670.28 L 7950.33,2529.66 L 7956.19,2533.05 L 7956.27,2539.77 L 7706.77,2684.14 Z " />
<path stroke="none" fill="#000000" transform="matrix(0.05 0 0 0.05 -61 -77)" d="M 7709.77,2622.38 L 7703.77,2611.99 L 7901.35,2497.92 L 7907.35,2508.31 L 7709.77,2622.38 Z " />
<path stroke="none" fill="#000000" transform="matrix(0.05 0 0 0.05 -61 -77)" d="M 7962.05,2529.76 L 7956.19,2533.05 L 7950.33,2529.66 L 7950.33,2248.43 L 7962.33,2241.5 L 7962.05,2529.76 Z " />
<path stroke="none" fill="#000000" transform="matrix(0.05 0 0 0.05 -61 -77)" d="M 7962.33,2241.5 L 7950.33,2248.43 L 7706.77,2107.81 L 7706.77,2093.95 L 7962.33,2241.5 Z " />
<path stroke="none" fill="#000000" transform="matrix(0.05 0 0 0.05 -61 -77)" d="M 7907.35,2269.78 L 7901.35,2280.17 L 7703.77,2166.1 L 7709.77,2155.71 L 7907.35,2269.78 Z " />
<path stroke="none" fill="#000000" transform="matrix(0.05 0 0 0.05 -61 -77)" d="M 7706.77,2093.95 L 7706.77,2107.81 L 7463.21,2248.43 L 7457.36,2245.05 L 7457.36,2238.28 L 7706.77,2093.95 Z " />
<path stroke="none" fill="#000000" transform="matrix(0.05 0 0 0.05 -61 -77)" d="M 7457.36,2238.28 L 7457.36,2245.05 L 7451.5,2248.43 L 7207.94,2107.81 L 7207.94,2101.05 L 7213.8,2097.66 L 7457.36,2238.28 Z " />
<path stroke="none" fill="#000000" transform="matrix(0.05 0 0 0.05 -61 -77)" d="M 7196.75,2101.05 L 7207.94,2101.05 L 7207.94,2107.81 L 6961.53,2250.24 L 6955.53,2239.85 L 7196.75,2101.05 Z " />
<path stroke="none" fill="#000000" transform="matrix(0.05 0 0 0.05 -61 -77)" d="M 7213.8,2097.66 L 7207.94,2101.05 L 7202.34,2091.35 L 7201.94,1813.05 L 7213.94,1813.05 L 7213.8,2097.66 Z " />
<path stroke="none" fill="#000000" transform="matrix(0.05 0 0 0.05 -61 -77)" d="M 7202.34,2091.35 L 7207.94,2101.05 L 7196.75,2101.05 L 6955.53,1962.24 L 6961.53,1951.85 L 7202.34,2091.35 Z " />
<text x="0" y="0" stroke="none" fill="#000000" transform="matrix(0.05 0 0 0.05 345.391 60.4338)" font-style="normal" font-weight="normal" font-size="200px" font-family="Arial" >
O</text>
<path stroke="none" fill="#000000" transform="matrix(0.05 0 0 0.05 -61 -77)" d="M 7956.27,2539.77 L 7956.19,2533.05 L 7962.05,2529.76 L 8119.06,2620.16 L 8113.06,2630.55 L 7956.27,2539.77 Z " />
<path stroke="none" fill="#000000" transform="matrix(0.05 0 0 0.05 -61 -77)" d="M 8298.83,2630.15 L 8292.83,2619.75 L 8449.15,2529.76 L 8461.17,2536.69 L 8298.83,2630.15 Z " />
<path stroke="none" fill="#000000" transform="matrix(0.05 0 0 0.05 -61 -77)" d="M 8461.17,2536.69 L 8449.15,2529.76 L 8449.16,2248.43 L 8455.02,2245.05 L 8460.88,2248.43 L 8461.17,2536.69 Z " />
<path stroke="none" fill="#000000" transform="matrix(0.05 0 0 0.05 -61 -77)" d="M 8460.88,2248.43 L 8455.02,2245.05 L 8455.02,2238.28 L 8698.57,2097.66 L 8710.58,2104.6 L 8460.88,2248.43 Z " />
<path stroke="none" fill="#000000" transform="matrix(0.05 0 0 0.05 -61 -77)" d="M 8458.02,2190.38 L 8452.02,2179.99 L 8649.59,2065.92 L 8655.59,2076.31 L 8458.02,2190.38 Z " />
<path stroke="none" fill="#000000" transform="matrix(0.05 0 0 0.05 -61 -77)" d="M 8710.58,2104.6 L 8698.57,2097.66 L 8698.57,1816.43 L 8704.43,1813.05 L 8710.3,1816.32 L 8710.58,2104.6 Z " />
<path stroke="none" fill="#000000" transform="matrix(0.05 0 0 0.05 -61 -77)" d="M 8704.53,1806.33 L 8704.43,1813.05 L 8698.57,1816.43 L 8455.02,1675.81 L 8455.02,1661.95 L 8704.53,1806.33 Z " />
<path stroke="none" fill="#000000" transform="matrix(0.05 0 0 0.05 -61 -77)" d="M 8655.59,1837.78 L 8649.59,1848.17 L 8452.02,1734.1 L 8458.02,1723.71 L 8655.59,1837.78 Z " />
<path stroke="none" fill="#000000" transform="matrix(0.05 0 0 0.05 -61 -77)" d="M 8455.02,1661.95 L 8455.02,1675.81 L 8211.46,1816.43 L 8199.45,1809.5 L 8455.02,1661.95 Z " />
<path stroke="none" fill="#000000" transform="matrix(0.05 0 0 0.05 -61 -77)" d="M 8199.45,1809.5 L 8211.46,1816.43 L 8211.46,2097.66 L 8199.45,2104.6 L 8199.45,1809.5 Z " />
<path stroke="none" fill="#000000" transform="matrix(0.05 0 0 0.05 -61 -77)" d="M 8251.44,1842.98 L 8263.44,1842.98 L 8263.44,2071.12 L 8251.44,2071.12 L 8251.44,1842.98 Z " />
<path stroke="none" fill="#000000" transform="matrix(0.05 0 0 0.05 -61 -77)" d="M 8199.45,2104.6 L 8211.46,2097.66 L 8455.02,2238.28 L 8455.02,2245.05 L 8449.16,2248.43 L 8199.45,2104.6 Z " />
<text x="0" y="0" stroke="none" fill="#000000" transform="matrix(0.05 0 0 0.05 383.357 10.0338)" font-style="normal" font-weight="normal" font-size="200px" font-family="Arial" >
Br</text>
<path stroke="none" fill="#000000" transform="matrix(0.05 0 0 0.05 -61 -77)" d="M 8710.3,1816.32 L 8704.43,1813.05 L 8704.53,1806.33 L 8853.17,1720.24 L 8859.17,1730.64 L 8710.3,1816.32 Z " />
<path stroke="none" fill="#000000" transform="matrix(0.05 0 0 0.05 -61 -77)" d="M 9955.73,3740.67 L 9961.59,3737.29 L 9967.45,3740.67 L 9967.45,4021.91 L 9955.44,4028.84 L 9955.73,3740.67 Z " />
<path stroke="none" fill="#000000" transform="matrix(0.05 0 0 0.05 -61 -77)" d="M 10007.4,3767.22 L 10019.4,3767.22 L 10019.4,3995.36 L 10007.4,3995.36 L 10007.4,3767.22 Z " />
<path stroke="none" fill="#000000" transform="matrix(0.05 0 0 0.05 -61 -77)" d="M 9955.44,4028.84 L 9967.45,4021.91 L 10211,4162.52 L 10211,4176.39 L 9955.44,4028.84 Z " />
<path stroke="none" fill="#000000" transform="matrix(0.05 0 0 0.05 -61 -77)" d="M 10211,4176.39 L 10211,4162.52 L 10454.6,4021.91 L 10460.4,4025.29 L 10460.5,4032.01 L 10211,4176.39 Z " />
<path stroke="none" fill="#000000" transform="matrix(0.05 0 0 0.05 -61 -77)" d="M 10214,4114.63 L 10208,4104.23 L 10405.6,3990.16 L 10411.6,4000.56 L 10214,4114.63 Z " />
<path stroke="none" fill="#000000" transform="matrix(0.05 0 0 0.05 -61 -77)" d="M 10466.3,4022 L 10460.4,4025.29 L 10454.6,4021.91 L 10454.6,3740.67 L 10466.6,3733.74 L 10466.3,4022 Z " />
<path stroke="none" fill="#000000" transform="matrix(0.05 0 0 0.05 -61 -77)" d="M 10466.6,3733.74 L 10454.6,3740.67 L 10211,3600.05 L 10211,3586.19 L 10466.6,3733.74 Z " />
<path stroke="none" fill="#000000" transform="matrix(0.05 0 0 0.05 -61 -77)" d="M 10411.6,3762.02 L 10405.6,3772.41 L 10208,3658.34 L 10214,3647.95 L 10411.6,3762.02 Z " />
<path stroke="none" fill="#000000" transform="matrix(0.05 0 0 0.05 -61 -77)" d="M 10211,3586.19 L 10211,3600.05 L 9967.45,3740.67 L 9961.59,3737.29 L 9961.59,3730.52 L 10211,3586.19 Z " />
<path stroke="none" fill="#000000" transform="matrix(0.05 0 0 0.05 -61 -77)" d="M 9961.59,3730.52 L 9961.59,3737.29 L 9955.73,3740.67 L 9712.17,3600.05 L 9712.17,3593.29 L 9718.03,3589.91 L 9961.59,3730.52 Z " />
<path stroke="none" fill="#000000" transform="matrix(0.05 0 0 0.05 -61 -77)" d="M 9700.98,3593.29 L 9712.17,3593.29 L 9712.17,3600.05 L 9465.76,3742.49 L 9459.76,3732.09 L 9700.98,3593.29 Z " />
<path stroke="none" fill="#000000" transform="matrix(0.05 0 0 0.05 -61 -77)" d="M 9718.03,3589.91 L 9712.17,3593.29 L 9706.58,3583.6 L 9706.17,3305.29 L 9718.17,3305.29 L 9718.03,3589.91 Z " />
<path stroke="none" fill="#000000" transform="matrix(0.05 0 0 0.05 -61 -77)" d="M 9706.58,3583.6 L 9712.17,3593.29 L 9700.98,3593.29 L 9459.76,3454.49 L 9465.76,3444.09 L 9706.58,3583.6 Z " />
<text x="0" y="0" stroke="none" fill="#000000" transform="matrix(0.05 0 0 0.05 470.603 135.046)" font-style="normal" font-weight="normal" font-size="200px" font-family="Arial" >
O</text>
<path stroke="none" fill="#000000" transform="matrix(0.05 0 0 0.05 -61 -77)" d="M 10460.5,4032.01 L 10460.4,4025.29 L 10466.3,4022 L 10623.3,4112.4 L 10617.3,4122.79 L 10460.5,4032.01 Z " />
<path stroke="none" fill="#000000" transform="matrix(0.05 0 0 0.05 -61 -77)" d="M 10803.1,4122.39 L 10797.1,4112 L 10953.4,4022 L 10965.4,4028.93 L 10803.1,4122.39 Z " />
<path stroke="none" fill="#000000" transform="matrix(0.05 0 0 0.05 -61 -77)" d="M 10965.4,4028.93 L 10953.4,4022 L 10953.4,3740.67 L 10959.2,3737.29 L 10965.1,3740.67 L 10965.4,4028.93 Z " />
<path stroke="none" fill="#000000" transform="matrix(0.05 0 0 0.05 -61 -77)" d="M 10965.1,3740.67 L 10959.2,3737.29 L 10959.2,3730.52 L 11202.8,3589.91 L 11214.8,3596.84 L 10965.1,3740.67 Z " />
<path stroke="none" fill="#000000" transform="matrix(0.05 0 0 0.05 -61 -77)" d="M 10962.2,3682.63 L 10956.2,3672.23 L 11153.8,3558.16 L 11159.8,3568.56 L 10962.2,3682.63 Z " />
<path stroke="none" fill="#000000" transform="matrix(0.05 0 0 0.05 -61 -77)" d="M 11214.8,3596.84 L 11202.8,3589.91 L 11202.8,3308.67 L 11208.7,3305.29 L 11214.5,3308.57 L 11214.8,3596.84 Z " />
<path stroke="none" fill="#000000" transform="matrix(0.05 0 0 0.05 -61 -77)" d="M 11208.8,3298.57 L 11208.7,3305.29 L 11202.8,3308.67 L 10959.2,3168.05 L 10959.2,3154.19 L 11208.8,3298.57 Z " />
<path stroke="none" fill="#000000" transform="matrix(0.05 0 0 0.05 -61 -77)" d="M 11159.8,3330.02 L 11153.8,3340.42 L 10956.2,3226.35 L 10962.2,3215.95 L 11159.8,3330.02 Z " />
<path stroke="none" fill="#000000" transform="matrix(0.05 0 0 0.05 -61 -77)" d="M 10959.2,3154.19 L 10959.2,3168.05 L 10715.7,3308.67 L 10703.7,3301.74 L 10959.2,3154.19 Z " />
<path stroke="none" fill="#000000" transform="matrix(0.05 0 0 0.05 -61 -77)" d="M 10703.7,3301.74 L 10715.7,3308.67 L 10715.7,3589.91 L 10703.7,3596.84 L 10703.7,3301.74 Z " />
<path stroke="none" fill="#000000" transform="matrix(0.05 0 0 0.05 -61 -77)" d="M 10755.7,3335.22 L 10767.7,3335.22 L 10767.7,3563.36 L 10755.7,3563.36 L 10755.7,3335.22 Z " />
<path stroke="none" fill="#000000" transform="matrix(0.05 0 0 0.05 -61 -77)" d="M 10703.7,3596.84 L 10715.7,3589.91 L 10959.2,3730.52 L 10959.2,3737.29 L 10953.4,3740.67 L 10703.7,3596.84 Z " />
<text x="0" y="0" stroke="none" fill="#000000" transform="matrix(0.05 0 0 0.05 508.015 84.646)" font-style="normal" font-weight="normal" font-size="200px" font-family="Arial" >
OH</text>
<path stroke="none" fill="#000000" transform="matrix(0.05 0 0 0.05 -61 -77)" d="M 11214.5,3308.57 L 11208.7,3305.29 L 11208.8,3298.57 L 11365.1,3208.04 L 11371.1,3218.44 L 11214.5,3308.57 Z " />
<path stroke="none" fill="#000000" transform="matrix(0.05 0 0 0.05 -61 -77)" d="M 5518.51,1809.34 L 5530.51,1816.27 L 5530.51,2097.51 L 5518.51,2104.44 L 5518.51,1809.34 Z " />
<path stroke="none" fill="#000000" transform="matrix(0.05 0 0 0.05 -61 -77)" d="M 5570.5,1842.82 L 5582.5,1842.82 L 5582.5,2070.96 L 5570.5,2070.96 L 5570.5,1842.82 Z " />
<path stroke="none" fill="#000000" transform="matrix(0.05 0 0 0.05 -61 -77)" d="M 5518.51,2104.44 L 5530.51,2097.51 L 5774.07,2238.12 L 5774.07,2244.89 L 5768.21,2248.27 L 5518.51,2104.44 Z " />
<path stroke="none" fill="#000000" transform="matrix(0.05 0 0 0.05 -61 -77)" d="M 5779.93,2248.27 L 5774.07,2244.89 L 5774.07,2238.12 L 6017.63,2097.51 L 6029.63,2104.44 L 5779.93,2248.27 Z " />
<path stroke="none" fill="#000000" transform="matrix(0.05 0 0 0.05 -61 -77)" d="M 5777.07,2190.23 L 5771.07,2179.83 L 5968.65,2065.76 L 5974.65,2076.15 L 5777.07,2190.23 Z " />
<path stroke="none" fill="#000000" transform="matrix(0.05 0 0 0.05 -61 -77)" d="M 6029.63,2104.44 L 6017.63,2097.51 L 6017.63,1816.27 L 6023.49,1812.89 L 6029.35,1816.16 L 6029.63,2104.44 Z " />
<path stroke="none" fill="#000000" transform="matrix(0.05 0 0 0.05 -61 -77)" d="M 6023.58,1806.18 L 6023.49,1812.89 L 6017.63,1816.27 L 5774.07,1675.65 L 5774.07,1661.79 L 6023.58,1806.18 Z " />
<path stroke="none" fill="#000000" transform="matrix(0.05 0 0 0.05 -61 -77)" d="M 5974.65,1837.62 L 5968.65,1848.01 L 5771.07,1733.94 L 5777.07,1723.55 L 5974.65,1837.62 Z " />
<path stroke="none" fill="#000000" transform="matrix(0.05 0 0 0.05 -61 -77)" d="M 5774.07,1661.79 L 5774.07,1675.65 L 5530.51,1816.27 L 5518.51,1809.34 L 5774.07,1661.79 Z " />
<text x="0" y="0" stroke="none" fill="#000000" transform="matrix(0.05 0 0 0.05 249.31 10.026)" font-style="normal" font-weight="normal" font-size="200px" font-family="Arial" >
Br</text>
<path stroke="none" fill="#000000" transform="matrix(0.05 0 0 0.05 -61 -77)" d="M 6029.35,1816.16 L 6023.49,1812.89 L 6023.58,1806.18 L 6172.66,1719.84 L 6178.66,1730.23 L 6029.35,1816.16 Z " />
<path stroke="none" fill="#000000" transform="matrix(0.05 0 0 0.05 -61 -77)" d="M 5768.21,2248.27 L 5774.07,2244.89 L 5779.93,2248.27 L 5780.22,2536.5 L 5768.21,2529.57 L 5768.21,2248.27 Z " />
<text x="0" y="0" stroke="none" fill="#000000" transform="matrix(0.05 0 0 0.05 206.898 60.426)" font-style="normal" font-weight="normal" font-size="200px" font-family="Arial" >
Br</text>
<path stroke="none" fill="#000000" transform="matrix(0.05 0 0 0.05 -61 -77)" d="M 5768.21,2529.57 L 5780.22,2536.5 L 5595.57,2642.87 L 5589.57,2632.48 L 5768.21,2529.57 Z " />
<path stroke="none" fill="#000000" transform="matrix(0.05 0 0 0.05 -61 -77)" d="M 1279.97,4791.46 L 1291.97,4798.39 L 1291.97,5079.62 L 1279.97,5086.55 L 1279.97,4791.46 Z " />
<path stroke="none" fill="#000000" transform="matrix(0.05 0 0 0.05 -61 -77)" d="M 1331.95,4824.94 L 1343.95,4824.94 L 1343.95,5053.08 L 1331.95,5053.08 L 1331.95,4824.94 Z " />
<path stroke="none" fill="#000000" transform="matrix(0.05 0 0 0.05 -61 -77)" d="M 1279.97,5086.55 L 1291.97,5079.62 L 1535.53,5220.24 L 1535.53,5227.01 L 1529.76,5230.44 L 1279.97,5086.55 Z " />
<path stroke="none" fill="#000000" transform="matrix(0.05 0 0 0.05 -61 -77)" d="M 1541.3,5230.44 L 1535.53,5227.01 L 1535.53,5220.24 L 1779.09,5079.62 L 1791.09,5086.55 L 1541.3,5230.44 Z " />
<path stroke="none" fill="#000000" transform="matrix(0.05 0 0 0.05 -61 -77)" d="M 1538.53,5172.34 L 1532.53,5161.95 L 1730.1,5047.88 L 1736.1,5058.27 L 1538.53,5172.34 Z " />
<path stroke="none" fill="#000000" transform="matrix(0.05 0 0 0.05 -61 -77)" d="M 1791.09,5086.55 L 1779.09,5079.62 L 1779.09,4798.39 L 1784.94,4795.01 L 1790.8,4798.39 L 1791.09,5086.55 Z " />
<path stroke="none" fill="#000000" transform="matrix(0.05 0 0 0.05 -61 -77)" d="M 1784.94,4788.24 L 1784.94,4795.01 L 1779.09,4798.39 L 1535.53,4657.77 L 1535.53,4643.91 L 1784.94,4788.24 Z " />
<path stroke="none" fill="#000000" transform="matrix(0.05 0 0 0.05 -61 -77)" d="M 1736.1,4819.74 L 1730.1,4830.13 L 1532.53,4716.06 L 1538.53,4705.67 L 1736.1,4819.74 Z " />
<path stroke="none" fill="#000000" transform="matrix(0.05 0 0 0.05 -61 -77)" d="M 1535.53,4643.91 L 1535.53,4657.77 L 1291.97,4798.39 L 1279.97,4791.46 L 1535.53,4643.91 Z " />
<path stroke="none" fill="#000000" transform="matrix(0.05 0 0 0.05 -61 -77)" d="M 1790.8,4798.39 L 1784.94,4795.01 L 1784.94,4788.24 L 2028.59,4647.57 L 2040.59,4654.51 L 1790.8,4798.39 Z " />
<text x="0" y="0" stroke="none" fill="#000000" transform="matrix(0.05 0 0 0.05 35.5328 144.732)" font-style="normal" font-weight="normal" font-size="200px" font-family="Arial" >
O</text>
<path stroke="none" fill="#000000" transform="matrix(0.05 0 0 0.05 -61 -77)" d="M 2040.59,4654.51 L 2028.59,4647.57 L 2028.36,4470.15 L 2040.36,4470.15 L 2040.59,4654.51 Z " />
<path stroke="none" fill="#000000" transform="matrix(0.05 0 0 0.05 -61 -77)" d="M 1988.52,4621.08 L 1976.52,4621.08 L 1976.52,4470.15 L 1988.52,4470.15 L 1988.52,4621.08 Z " />
<text x="0" y="0" stroke="none" fill="#000000" transform="matrix(0.05 0 0 0.05 11.8873 202.332)" font-style="normal" font-weight="normal" font-size="200px" font-family="Arial" >
OH</text>
<path stroke="none" fill="#000000" transform="matrix(0.05 0 0 0.05 -61 -77)" d="M 1529.76,5230.44 L 1535.53,5227.01 L 1541.3,5230.44 L 1541.53,5409.15 L 1529.53,5409.15 L 1529.76,5230.44 Z " />
<path stroke="none" fill="#000000" transform="matrix(0.05 0 0 0.05 -61 -77)" d="M 2680.2,4799.03 L 2692.21,4805.96 L 2692.21,5087.19 L 2680.2,5094.12 L 2680.2,4799.03 Z " />
<path stroke="none" fill="#000000" transform="matrix(0.05 0 0 0.05 -61 -77)" d="M 2732.19,4832.5 L 2744.19,4832.5 L 2744.19,5060.64 L 2732.19,5060.64 L 2732.19,4832.5 Z " />
<path stroke="none" fill="#000000" transform="matrix(0.05 0 0 0.05 -61 -77)" d="M 2680.2,5094.12 L 2692.21,5087.19 L 2935.76,5227.81 L 2935.76,5234.57 L 2929.99,5238.01 L 2680.2,5094.12 Z " />
<path stroke="none" fill="#000000" transform="matrix(0.05 0 0 0.05 -61 -77)" d="M 2941.53,5238.01 L 2935.76,5234.57 L 2935.76,5227.81 L 3179.32,5087.19 L 3191.32,5094.12 L 2941.53,5238.01 Z " />
<path stroke="none" fill="#000000" transform="matrix(0.05 0 0 0.05 -61 -77)" d="M 2938.76,5179.91 L 2932.76,5169.52 L 3130.34,5055.45 L 3136.34,5065.84 L 2938.76,5179.91 Z " />
<path stroke="none" fill="#000000" transform="matrix(0.05 0 0 0.05 -61 -77)" d="M 3191.32,5094.12 L 3179.32,5087.19 L 3179.32,4805.96 L 3185.18,4802.57 L 3191.04,4805.96 L 3191.32,5094.12 Z " />
<path stroke="none" fill="#000000" transform="matrix(0.05 0 0 0.05 -61 -77)" d="M 3185.18,4795.81 L 3185.18,4802.57 L 3179.32,4805.96 L 2935.76,4665.34 L 2935.76,4651.48 L 3185.18,4795.81 Z " />
<path stroke="none" fill="#000000" transform="matrix(0.05 0 0 0.05 -61 -77)" d="M 3136.34,4827.31 L 3130.34,4837.7 L 2932.76,4723.63 L 2938.76,4713.24 L 3136.34,4827.31 Z " />
<path stroke="none" fill="#000000" transform="matrix(0.05 0 0 0.05 -61 -77)" d="M 2935.76,4651.48 L 2935.76,4665.34 L 2692.21,4805.96 L 2680.2,4799.03 L 2935.76,4651.48 Z " />
<path stroke="none" fill="#000000" transform="matrix(0.05 0 0 0.05 -61 -77)" d="M 3191.04,4805.96 L 3185.18,4802.57 L 3185.18,4795.81 L 3428.82,4655.14 L 3440.82,4662.08 L 3191.04,4805.96 Z " />
<text x="0" y="0" stroke="none" fill="#000000" transform="matrix(0.05 0 0 0.05 105.544 145.11)" font-style="normal" font-weight="normal" font-size="200px" font-family="Arial" >
O</text>
<path stroke="none" fill="#000000" transform="matrix(0.05 0 0 0.05 -61 -77)" d="M 3440.82,4662.08 L 3428.82,4655.14 L 3428.59,4477.72 L 3440.59,4477.72 L 3440.82,4662.08 Z " />
<path stroke="none" fill="#000000" transform="matrix(0.05 0 0 0.05 -61 -77)" d="M 3388.75,4628.64 L 3376.75,4628.64 L 3376.75,4477.72 L 3388.75,4477.72 L 3388.75,4628.64 Z " />
<text x="0" y="0" stroke="none" fill="#000000" transform="matrix(0.05 0 0 0.05 81.8989 202.71)" font-style="normal" font-weight="normal" font-size="200px" font-family="Arial" >
O</text>
<path stroke="none" fill="#000000" transform="matrix(0.05 0 0 0.05 -61 -77)" d="M 2929.99,5238.01 L 2935.76,5234.57 L 2941.53,5238.01 L 2941.76,5416.72 L 2929.76,5416.72 L 2929.99,5238.01 Z " />
<path stroke="none" fill="#000000" transform="matrix(0.05 0 0 0.05 -61 -77)" d="M 3023.64,5580.24 L 3029.64,5569.85 L 3191.41,5662.97 L 3179.4,5669.91 L 3023.64,5580.24 Z " />
<text x="0" y="0" stroke="none" fill="#000000" transform="matrix(0.05 0 0 0.05 94.3697 224.31)" font-style="normal" font-weight="normal" font-size="200px" font-family="Arial" >
O</text>
<path stroke="none" fill="#000000" transform="matrix(0.05 0 0 0.05 -61 -77)" d="M 3179.4,5669.91 L 3191.41,5662.97 L 3191.18,5848.72 L 3179.18,5848.72 L 3179.4,5669.91 Z " />
<path stroke="none" fill="#000000" transform="matrix(0.05 0 0 0.05 -61 -77)" d="M 3092.19,6001.33 L 3098.19,6011.72 L 2938.76,6103.77 L 2932.76,6093.38 L 3092.19,6001.33 Z " />
<path stroke="none" fill="#000000" transform="matrix(0.05 0 0 0.05 -61 -77)" d="M 4050.16,4783.89 L 4062.16,4790.82 L 4062.16,5072.05 L 4050.16,5078.99 L 4050.16,4783.89 Z " />
<path stroke="none" fill="#000000" transform="matrix(0.05 0 0 0.05 -61 -77)" d="M 4102.14,4817.37 L 4114.14,4817.37 L 4114.14,5045.51 L 4102.14,5045.51 L 4102.14,4817.37 Z " />
<path stroke="none" fill="#000000" transform="matrix(0.05 0 0 0.05 -61 -77)" d="M 4050.16,5078.99 L 4062.16,5072.05 L 4305.72,5212.67 L 4305.72,5219.44 L 4299.95,5222.87 L 4050.16,5078.99 Z " />
<path stroke="none" fill="#000000" transform="matrix(0.05 0 0 0.05 -61 -77)" d="M 4311.49,5222.87 L 4305.72,5219.44 L 4305.72,5212.67 L 4549.28,5072.05 L 4561.28,5078.99 L 4311.49,5222.87 Z " />
<path stroke="none" fill="#000000" transform="matrix(0.05 0 0 0.05 -61 -77)" d="M 4308.72,5164.77 L 4302.72,5154.38 L 4500.29,5040.31 L 4506.29,5050.7 L 4308.72,5164.77 Z " />
<path stroke="none" fill="#000000" transform="matrix(0.05 0 0 0.05 -61 -77)" d="M 4561.28,5078.99 L 4549.28,5072.05 L 4549.28,4790.82 L 4555.13,4787.44 L 4560.99,4790.82 L 4561.28,5078.99 Z " />
<path stroke="none" fill="#000000" transform="matrix(0.05 0 0 0.05 -61 -77)" d="M 4555.13,4780.67 L 4555.13,4787.44 L 4549.28,4790.82 L 4305.72,4650.2 L 4305.72,4636.34 L 4555.13,4780.67 Z " />
<path stroke="none" fill="#000000" transform="matrix(0.05 0 0 0.05 -61 -77)" d="M 4506.29,4812.17 L 4500.29,4822.56 L 4302.72,4708.49 L 4308.72,4698.1 L 4506.29,4812.17 Z " />
<path stroke="none" fill="#000000" transform="matrix(0.05 0 0 0.05 -61 -77)" d="M 4305.72,4636.34 L 4305.72,4650.2 L 4062.16,4790.82 L 4050.16,4783.89 L 4305.72,4636.34 Z " />
<path stroke="none" fill="#000000" transform="matrix(0.05 0 0 0.05 -61 -77)" d="M 4560.99,4790.82 L 4555.13,4787.44 L 4555.13,4780.67 L 4798.78,4640 L 4810.78,4646.94 L 4560.99,4790.82 Z " />
<text x="0" y="0" stroke="none" fill="#000000" transform="matrix(0.05 0 0 0.05 175.338 144.353)" font-style="normal" font-weight="normal" font-size="200px" font-family="Arial" >
OH</text>
<path stroke="none" fill="#000000" transform="matrix(0.05 0 0 0.05 -61 -77)" d="M 4810.78,4646.94 L 4798.78,4640 L 4798.55,4462.58 L 4810.55,4462.58 L 4810.78,4646.94 Z " />
<text x="0" y="0" stroke="none" fill="#000000" transform="matrix(0.05 0 0 0.05 150.397 201.953)" font-style="normal" font-weight="normal" font-size="200px" font-family="Arial" >
O</text>
<path stroke="none" fill="#000000" transform="matrix(0.05 0 0 0.05 -61 -77)" d="M 4299.95,5222.87 L 4305.72,5219.44 L 4311.49,5222.87 L 4311.72,5401.58 L 4299.72,5401.58 L 4299.95,5222.87 Z " />
<path stroke="none" fill="#000000" transform="matrix(0.05 0 0 0.05 -61 -77)" d="M 4393.6,5565.1 L 4399.6,5554.71 L 4561.37,5647.84 L 4549.35,5654.77 L 4393.6,5565.1 Z " />
<text x="0" y="0" stroke="none" fill="#000000" transform="matrix(0.05 0 0 0.05 162.868 223.553)" font-style="normal" font-weight="normal" font-size="200px" font-family="Arial" >
O</text>
<path stroke="none" fill="#000000" transform="matrix(0.05 0 0 0.05 -61 -77)" d="M 4549.35,5654.77 L 4561.37,5647.84 L 4561.13,5833.58 L 4549.13,5833.58 L 4549.35,5654.77 Z " />
<path stroke="none" fill="#000000" transform="matrix(0.05 0 0 0.05 -61 -77)" d="M 4462.15,5986.19 L 4468.15,5996.58 L 4308.72,6088.63 L 4302.72,6078.24 L 4462.15,5986.19 Z " />
<path stroke="none" fill="#000000" transform="matrix(0.05 0 0 0.05 -61 -77)" d="M 5533.65,4791.46 L 5545.65,4798.39 L 5545.65,5079.62 L 5533.65,5086.55 L 5533.65,4791.46 Z " />
<path stroke="none" fill="#000000" transform="matrix(0.05 0 0 0.05 -61 -77)" d="M 5585.63,4824.94 L 5597.63,4824.94 L 5597.63,5053.08 L 5585.63,5053.08 L 5585.63,4824.94 Z " />
<path stroke="none" fill="#000000" transform="matrix(0.05 0 0 0.05 -61 -77)" d="M 5533.65,5086.55 L 5545.65,5079.62 L 5789.21,5220.24 L 5789.21,5227.01 L 5783.43,5230.44 L 5533.65,5086.55 Z " />
<path stroke="none" fill="#000000" transform="matrix(0.05 0 0 0.05 -61 -77)" d="M 5794.98,5230.44 L 5789.21,5227.01 L 5789.21,5220.24 L 6032.76,5079.62 L 6044.77,5086.55 L 5794.98,5230.44 Z " />
<path stroke="none" fill="#000000" transform="matrix(0.05 0 0 0.05 -61 -77)" d="M 5792.21,5172.34 L 5786.21,5161.95 L 5983.78,5047.88 L 5989.78,5058.27 L 5792.21,5172.34 Z " />
<path stroke="none" fill="#000000" transform="matrix(0.05 0 0 0.05 -61 -77)" d="M 6044.77,5086.55 L 6032.76,5079.62 L 6032.76,4798.39 L 6038.62,4795.01 L 6044.48,4798.39 L 6044.77,5086.55 Z " />
<path stroke="none" fill="#000000" transform="matrix(0.05 0 0 0.05 -61 -77)" d="M 6038.62,4788.24 L 6038.62,4795.01 L 6032.76,4798.39 L 5789.21,4657.77 L 5789.21,4643.91 L 6038.62,4788.24 Z " />
<path stroke="none" fill="#000000" transform="matrix(0.05 0 0 0.05 -61 -77)" d="M 5989.78,4819.74 L 5983.78,4830.13 L 5786.21,4716.06 L 5792.21,4705.67 L 5989.78,4819.74 Z " />
<path stroke="none" fill="#000000" transform="matrix(0.05 0 0 0.05 -61 -77)" d="M 5789.21,4643.91 L 5789.21,4657.77 L 5545.65,4798.39 L 5533.65,4791.46 L 5789.21,4643.91 Z " />
<path stroke="none" fill="#000000" transform="matrix(0.05 0 0 0.05 -61 -77)" d="M 6044.48,4798.39 L 6038.62,4795.01 L 6038.62,4788.24 L 6282.27,4647.57 L 6294.27,4654.51 L 6044.48,4798.39 Z " />
<text x="0" y="0" stroke="none" fill="#000000" transform="matrix(0.05 0 0 0.05 249.791 144.732)" font-style="normal" font-weight="normal" font-size="200px" font-family="Arial" >
Cl</text>
<path stroke="none" fill="#000000" transform="matrix(0.05 0 0 0.05 -61 -77)" d="M 6294.27,4654.51 L 6282.27,4647.57 L 6282.04,4470.2 L 6294.04,4470.2 L 6294.27,4654.51 Z " />
<text x="0" y="0" stroke="none" fill="#000000" transform="matrix(0.05 0 0 0.05 224.571 202.332)" font-style="normal" font-weight="normal" font-size="200px" font-family="Arial" >
O</text>
<path stroke="none" fill="#000000" transform="matrix(0.05 0 0 0.05 -61 -77)" d="M 5783.43,5230.44 L 5789.21,5227.01 L 5794.98,5230.44 L 5795.21,5409.15 L 5783.21,5409.15 L 5783.43,5230.44 Z " />
<path stroke="none" fill="#000000" transform="matrix(0.05 0 0 0.05 -61 -77)" d="M 5877.09,5572.67 L 5883.09,5562.28 L 6044.86,5655.41 L 6032.84,5662.34 L 5877.09,5572.67 Z " />
<text x="0" y="0" stroke="none" fill="#000000" transform="matrix(0.05 0 0 0.05 237.042 223.932)" font-style="normal" font-weight="normal" font-size="200px" font-family="Arial" >
O</text>
<path stroke="none" fill="#000000" transform="matrix(0.05 0 0 0.05 -61 -77)" d="M 6032.84,5662.34 L 6044.86,5655.41 L 6044.62,5841.15 L 6032.62,5841.15 L 6032.84,5662.34 Z " />
<path stroke="none" fill="#000000" transform="matrix(0.05 0 0 0.05 -61 -77)" d="M 5945.64,5993.76 L 5951.64,6004.15 L 5792.21,6096.2 L 5786.21,6085.81 L 5945.64,5993.76 Z " />
<path stroke="none" fill="#000000" transform="matrix(0.05 0 0 0.05 -61 -77)" d="M 7451.5,5222.98 L 7457.36,5219.59 L 7463.21,5222.98 L 7463.21,5504.21 L 7451.21,5511.14 L 7451.5,5222.98 Z " />
<path stroke="none" fill="#000000" transform="matrix(0.05 0 0 0.05 -61 -77)" d="M 7503.2,5249.52 L 7515.2,5249.52 L 7515.2,5477.66 L 7503.2,5477.66 L 7503.2,5249.52 Z " />
<path stroke="none" fill="#000000" transform="matrix(0.05 0 0 0.05 -61 -77)" d="M 7451.21,5511.14 L 7463.21,5504.21 L 7706.77,5644.83 L 7706.77,5658.69 L 7451.21,5511.14 Z " />
<path stroke="none" fill="#000000" transform="matrix(0.05 0 0 0.05 -61 -77)" d="M 7706.77,5658.69 L 7706.77,5644.83 L 7950.33,5504.21 L 7956.19,5507.59 L 7956.27,5514.31 L 7706.77,5658.69 Z " />
<path stroke="none" fill="#000000" transform="matrix(0.05 0 0 0.05 -61 -77)" d="M 7709.77,5596.93 L 7703.77,5586.54 L 7901.35,5472.47 L 7907.35,5482.86 L 7709.77,5596.93 Z " />
<path stroke="none" fill="#000000" transform="matrix(0.05 0 0 0.05 -61 -77)" d="M 7962.05,5504.31 L 7956.19,5507.59 L 7950.33,5504.21 L 7950.33,5222.98 L 7962.33,5216.04 L 7962.05,5504.31 Z " />
<path stroke="none" fill="#000000" transform="matrix(0.05 0 0 0.05 -61 -77)" d="M 7962.33,5216.04 L 7950.33,5222.98 L 7706.77,5082.36 L 7706.77,5068.5 L 7962.33,5216.04 Z " />
<path stroke="none" fill="#000000" transform="matrix(0.05 0 0 0.05 -61 -77)" d="M 7907.35,5244.33 L 7901.35,5254.72 L 7703.77,5140.65 L 7709.77,5130.26 L 7907.35,5244.33 Z " />
<path stroke="none" fill="#000000" transform="matrix(0.05 0 0 0.05 -61 -77)" d="M 7706.77,5068.5 L 7706.77,5082.36 L 7463.21,5222.98 L 7457.36,5219.59 L 7457.36,5212.83 L 7706.77,5068.5 Z " />
<path stroke="none" fill="#000000" transform="matrix(0.05 0 0 0.05 -61 -77)" d="M 7457.36,5212.83 L 7457.36,5219.59 L 7451.5,5222.98 L 7207.94,5082.36 L 7207.94,5075.59 L 7213.8,5072.21 L 7457.36,5212.83 Z " />
<path stroke="none" fill="#000000" transform="matrix(0.05 0 0 0.05 -61 -77)" d="M 7196.75,5075.59 L 7207.94,5075.59 L 7207.94,5082.36 L 6961.53,5224.79 L 6955.53,5214.4 L 7196.75,5075.59 Z " />
<path stroke="none" fill="#000000" transform="matrix(0.05 0 0 0.05 -61 -77)" d="M 7213.8,5072.21 L 7207.94,5075.59 L 7202.34,5065.9 L 7201.94,4787.59 L 7213.94,4787.59 L 7213.8,5072.21 Z " />
<path stroke="none" fill="#000000" transform="matrix(0.05 0 0 0.05 -61 -77)" d="M 7202.34,5065.9 L 7207.94,5075.59 L 7196.75,5075.59 L 6955.53,4936.79 L 6961.53,4926.4 L 7202.34,5065.9 Z " />
<text x="0" y="0" stroke="none" fill="#000000" transform="matrix(0.05 0 0 0.05 345.391 209.161)" font-style="normal" font-weight="normal" font-size="200px" font-family="Arial" >
O</text>
<path stroke="none" fill="#000000" transform="matrix(0.05 0 0 0.05 -61 -77)" d="M 7956.27,5514.31 L 7956.19,5507.59 L 7962.05,5504.31 L 8119.06,5594.7 L 8113.06,5605.1 L 7956.27,5514.31 Z " />
<path stroke="none" fill="#000000" transform="matrix(0.05 0 0 0.05 -61 -77)" d="M 8298.83,5604.7 L 8292.83,5594.3 L 8449.15,5504.31 L 8461.17,5511.23 L 8298.83,5604.7 Z " />
<path stroke="none" fill="#000000" transform="matrix(0.05 0 0 0.05 -61 -77)" d="M 8461.17,5511.23 L 8449.15,5504.31 L 8449.16,5222.98 L 8455.02,5219.59 L 8460.88,5222.98 L 8461.17,5511.23 Z " />
<path stroke="none" fill="#000000" transform="matrix(0.05 0 0 0.05 -61 -77)" d="M 8460.88,5222.98 L 8455.02,5219.59 L 8455.02,5212.83 L 8698.57,5072.21 L 8710.58,5079.14 L 8460.88,5222.98 Z " />
<path stroke="none" fill="#000000" transform="matrix(0.05 0 0 0.05 -61 -77)" d="M 8458.02,5164.93 L 8452.02,5154.54 L 8649.59,5040.47 L 8655.59,5050.86 L 8458.02,5164.93 Z " />
<path stroke="none" fill="#000000" transform="matrix(0.05 0 0 0.05 -61 -77)" d="M 8710.58,5079.14 L 8698.57,5072.21 L 8698.57,4790.98 L 8704.43,4787.59 L 8710.29,4790.88 L 8710.58,5079.14 Z " />
<path stroke="none" fill="#000000" transform="matrix(0.05 0 0 0.05 -61 -77)" d="M 8704.52,4780.87 L 8704.43,4787.59 L 8698.57,4790.98 L 8455.02,4650.36 L 8455.02,4636.5 L 8704.52,4780.87 Z " />
<path stroke="none" fill="#000000" transform="matrix(0.05 0 0 0.05 -61 -77)" d="M 8655.59,4812.33 L 8649.59,4822.72 L 8452.02,4708.65 L 8458.02,4698.26 L 8655.59,4812.33 Z " />
<path stroke="none" fill="#000000" transform="matrix(0.05 0 0 0.05 -61 -77)" d="M 8455.02,4636.5 L 8455.02,4650.36 L 8211.46,4790.98 L 8199.45,4784.04 L 8455.02,4636.5 Z " />
<path stroke="none" fill="#000000" transform="matrix(0.05 0 0 0.05 -61 -77)" d="M 8199.45,4784.04 L 8211.46,4790.98 L 8211.46,5072.21 L 8199.45,5079.14 L 8199.45,4784.04 Z " />
<path stroke="none" fill="#000000" transform="matrix(0.05 0 0 0.05 -61 -77)" d="M 8251.44,4817.52 L 8263.44,4817.52 L 8263.44,5045.66 L 8251.44,5045.66 L 8251.44,4817.52 Z " />
<path stroke="none" fill="#000000" transform="matrix(0.05 0 0 0.05 -61 -77)" d="M 8199.45,5079.14 L 8211.46,5072.21 L 8455.02,5212.83 L 8455.02,5219.59 L 8449.16,5222.98 L 8199.45,5079.14 Z " />
<text x="0" y="0" stroke="none" fill="#000000" transform="matrix(0.05 0 0 0.05 382.803 158.761)" font-style="normal" font-weight="normal" font-size="200px" font-family="Arial" >
O</text>
<path stroke="none" fill="#000000" transform="matrix(0.05 0 0 0.05 -61 -77)" d="M 8710.29,4790.88 L 8704.43,4787.59 L 8704.52,4780.87 L 8860.86,4690.35 L 8866.86,4700.74 L 8710.29,4790.88 Z " />
<path stroke="none" fill="#000000" transform="matrix(0.05 0 0 0.05 -61 -77)" d="M 9041.72,4701.26 L 9047.72,4690.87 L 9203.26,4780.92 L 9203.26,4794.79 L 9041.72,4701.26 Z " />
<text x="0" y="0" stroke="none" fill="#000000" transform="matrix(0.05 0 0 0.05 407.745 158.761)" font-style="normal" font-weight="normal" font-size="200px" font-family="Arial" >
O</text>
<path stroke="none" fill="#000000" transform="matrix(0.05 0 0 0.05 -61 -77)" d="M 9203.26,4794.79 L 9203.26,4780.92 L 9359.69,4690.35 L 9365.69,4700.74 L 9203.26,4794.79 Z " />
<path stroke="none" fill="#000000" transform="matrix(0.05 0 0 0.05 -61 -77)" d="M 9540.55,4701.26 L 9546.55,4690.87 L 9705.09,4782.4 L 9699.09,4792.79 L 9540.55,4701.26 Z " />
<path stroke="none" fill="#000000" transform="matrix(0.05 0 0 0.05 -61 -77)" d="M 6646.87,2212.66 L 6319.03,2212.66 L 6319.03,2200.66 L 6646.87,2200.66 Z " />
<path stroke="none" fill="#000000" transform="matrix(0.05 0 0 0.05 -61 -77)" d="M 6803.43,2206.66 C 6803.43,2206.66 6623.43,2252.66 6623.43,2252.66 C 6623.43,2252.66 6645.87,2226.79 6645.87,2206.66 C 6645.87,2186.09 6623.43,2159.66 6623.43,2159.66 C 6623.43,2159.66 6803.43,2206.66 6803.43,2206.66 C 6803.43,2206.66 6803.43,2206.66 6803.43,2206.66 " />
<path stroke="#000000" stroke-width="1" fill="none" transform="matrix(0.05 0 0 0.05 -61 -77)" d="M 6803.43,2206.66 C 6803.43,2206.66 6623.43,2252.66 6623.43,2252.66 C 6623.43,2252.66 6645.87,2226.79 6645.87,2206.66 C 6645.87,2186.09 6623.43,2159.66 6623.43,2159.66 C 6623.43,2159.66 6803.43,2206.66 6803.43,2206.66 C 6803.43,2206.66 6803.43,2206.66 6803.43,2206.66 " />
<path stroke="none" fill="#000000" transform="matrix(0.05 0 0 0.05 -61 -77)" d="M 2385.62,5187.21 L 2057.78,5187.21 L 2057.78,5175.21 L 2385.62,5175.21 Z " />
<path stroke="none" fill="#000000" transform="matrix(0.05 0 0 0.05 -61 -77)" d="M 2542.18,5181.21 C 2542.18,5181.21 2362.19,5227.21 2362.19,5227.21 C 2362.19,5227.21 2384.62,5201.34 2384.62,5181.21 C 2384.62,5160.64 2362.19,5134.21 2362.19,5134.21 C 2362.19,5134.21 2542.18,5181.21 2542.18,5181.21 C 2542.18,5181.21 2542.18,5181.21 2542.18,5181.21 " />
<path stroke="#000000" stroke-width="1" fill="none" transform="matrix(0.05 0 0 0.05 -61 -77)" d="M 2542.18,5181.21 C 2542.18,5181.21 2362.19,5227.21 2362.19,5227.21 C 2362.19,5227.21 2384.62,5201.34 2384.62,5181.21 C 2384.62,5160.64 2362.19,5134.21 2362.19,5134.21 C 2362.19,5134.21 2542.18,5181.21 2542.18,5181.21 C 2542.18,5181.21 2542.18,5181.21 2542.18,5181.21 " />
<path stroke="none" fill="#000000" transform="matrix(0.05 0 0 0.05 -61 -77)" d="M 3778.29,5187.21 L 3450.44,5187.21 L 3450.44,5175.21 L 3778.29,5175.21 Z " />
<path stroke="none" fill="#000000" transform="matrix(0.05 0 0 0.05 -61 -77)" d="M 3934.85,5181.21 C 3934.85,5181.21 3754.85,5227.21 3754.85,5227.21 C 3754.85,5227.21 3777.29,5201.34 3777.29,5181.21 C 3777.29,5160.64 3754.85,5134.21 3754.85,5134.21 C 3754.85,5134.21 3934.85,5181.21 3934.85,5181.21 C 3934.85,5181.21 3934.85,5181.21 3934.85,5181.21 " />
<path stroke="#000000" stroke-width="1" fill="none" transform="matrix(0.05 0 0 0.05 -61 -77)" d="M 3934.85,5181.21 C 3934.85,5181.21 3754.85,5227.21 3754.85,5227.21 C 3754.85,5227.21 3777.29,5201.34 3777.29,5181.21 C 3777.29,5160.64 3754.85,5134.21 3754.85,5134.21 C 3754.85,5134.21 3934.85,5181.21 3934.85,5181.21 C 3934.85,5181.21 3934.85,5181.21 3934.85,5181.21 " />
<path stroke="none" fill="#000000" transform="matrix(0.05 0 0 0.05 -61 -77)" d="M 5208.8,5194.78 L 4880.95,5194.78 L 4880.95,5182.78 L 5208.8,5182.78 Z " />
<path stroke="none" fill="#000000" transform="matrix(0.05 0 0 0.05 -61 -77)" d="M 5365.35,5188.78 C 5365.35,5188.78 5185.36,5234.78 5185.36,5234.78 C 5185.36,5234.78 5207.8,5208.91 5207.8,5188.78 C 5207.8,5168.21 5185.36,5141.78 5185.36,5141.78 C 5185.36,5141.78 5365.35,5188.78 5365.35,5188.78 C 5365.35,5188.78 5365.35,5188.78 5365.35,5188.78 " />
<path stroke="#000000" stroke-width="1" fill="none" transform="matrix(0.05 0 0 0.05 -61 -77)" d="M 5365.35,5188.78 C 5365.35,5188.78 5185.36,5234.78 5185.36,5234.78 C 5185.36,5234.78 5207.8,5208.91 5207.8,5188.78 C 5207.8,5168.21 5185.36,5141.78 5185.36,5141.78 C 5185.36,5141.78 5365.35,5188.78 5365.35,5188.78 C 5365.35,5188.78 5365.35,5188.78 5365.35,5188.78 " />
<path stroke="none" fill="#000000" transform="matrix(0.05 0 0 0.05 -61 -77)" d="M 6662.01,5194.78 L 6334.16,5194.78 L 6334.16,5182.78 L 6662.01,5182.78 Z " />
<path stroke="none" fill="#000000" transform="matrix(0.05 0 0 0.05 -61 -77)" d="M 6818.57,5188.78 C 6818.57,5188.78 6638.57,5234.78 6638.57,5234.78 C 6638.57,5234.78 6661.01,5208.91 6661.01,5188.78 C 6661.01,5168.21 6638.57,5141.78 6638.57,5141.78 C 6638.57,5141.78 6818.57,5188.78 6818.57,5188.78 C 6818.57,5188.78 6818.57,5188.78 6818.57,5188.78 " />
<path stroke="#000000" stroke-width="1" fill="none" transform="matrix(0.05 0 0 0.05 -61 -77)" d="M 6818.57,5188.78 C 6818.57,5188.78 6638.57,5234.78 6638.57,5234.78 C 6638.57,5234.78 6661.01,5208.91 6661.01,5188.78 C 6661.01,5168.21 6638.57,5141.78 6638.57,5141.78 C 6638.57,5141.78 6818.57,5188.78 6818.57,5188.78 C 6818.57,5188.78 6818.57,5188.78 6818.57,5188.78 " />
<path stroke="none" fill="#000000" transform="matrix(0.05 0 0 0.05 -61 -77)" d="M 10719.1,2212.66 L 9354.12,2212.66 L 9354.12,2200.66 L 10719.1,2200.66 Z " />
<path stroke="none" fill="#000000" transform="matrix(0.05 0 0 0.05 -61 -77)" d="M 10713.1,2611.57 L 10713.1,2206.66 L 10725.1,2206.66 L 10725.1,2611.57 Z " />
<path stroke="none" fill="#000000" transform="matrix(0.05 0 0 0.05 -61 -77)" d="M 10719.1,2768.13 C 10719.1,2768.13 10672.1,2588.13 10672.1,2588.13 C 10672.1,2588.13 10698.5,2610.57 10719.1,2610.57 C 10739.2,2610.57 10765.1,2588.13 10765.1,2588.13 C 10765.1,2588.13 10719.1,2768.13 10719.1,2768.13 C 10719.1,2768.13 10719.1,2768.13 10719.1,2768.13 " />
<path stroke="#000000" stroke-width="1" fill="none" transform="matrix(0.05 0 0 0.05 -61 -77)" d="M 10719.1,2768.13 C 10719.1,2768.13 10672.1,2588.13 10672.1,2588.13 C 10672.1,2588.13 10698.5,2610.57 10719.1,2610.57 C 10739.2,2610.57 10765.1,2588.13 10765.1,2588.13 C 10765.1,2588.13 10719.1,2768.13 10719.1,2768.13 C 10719.1,2768.13 10719.1,2768.13 10719.1,2768.13 " />
<path stroke="none" fill="#000000" transform="matrix(0.05 0 0 0.05 -61 -77)" d="M 10719.1,5198.92 L 9354.12,5198.92 L 9354.12,5186.92 L 10719.1,5186.92 Z " />
<path stroke="none" fill="#000000" transform="matrix(0.05 0 0 0.05 -61 -77)" d="M 10725.1,4788.01 L 10725.1,5192.92 L 10713.1,5192.92 L 10713.1,4788.01 Z " />
<path stroke="none" fill="#000000" transform="matrix(0.05 0 0 0.05 -61 -77)" d="M 10719.1,4631.45 C 10719.1,4631.45 10765.1,4811.45 10765.1,4811.45 C 10765.1,4811.45 10739.2,4789.01 10719.1,4789.01 C 10698.5,4789.01 10672.1,4811.45 10672.1,4811.45 C 10672.1,4811.45 10719.1,4631.45 10719.1,4631.45 C 10719.1,4631.45 10719.1,4631.45 10719.1,4631.45 " />
<path stroke="#000000" stroke-width="1" fill="none" transform="matrix(0.05 0 0 0.05 -61 -77)" d="M 10719.1,4631.45 C 10719.1,4631.45 10765.1,4811.45 10765.1,4811.45 C 10765.1,4811.45 10739.2,4789.01 10719.1,4789.01 C 10698.5,4789.01 10672.1,4811.45 10672.1,4811.45 C 10672.1,4811.45 10719.1,4631.45 10719.1,4631.45 C 10719.1,4631.45 10719.1,4631.45 10719.1,4631.45 " />
<path stroke="none" fill="#000000" transform="matrix(0.05 0 0 0.05 -61 -77)" d="M 12047,3713.32 L 11719.1,3713.32 L 11719.1,3701.32 L 12047,3701.32 Z " />
<path stroke="none" fill="#000000" transform="matrix(0.05 0 0 0.05 -61 -77)" d="M 12203.6,3707.32 C 12203.6,3707.32 12023.6,3753.32 12023.6,3753.32 C 12023.6,3753.32 12046,3727.45 12046,3707.32 C 12046,3686.75 12023.6,3660.32 12023.6,3660.32 C 12023.6,3660.32 12203.6,3707.32 12203.6,3707.32 C 12203.6,3707.32 12203.6,3707.32 12203.6,3707.32 " />
<path stroke="#000000" stroke-width="1" fill="none" transform="matrix(0.05 0 0 0.05 -61 -77)" d="M 12203.6,3707.32 C 12203.6,3707.32 12023.6,3753.32 12023.6,3753.32 C 12023.6,3753.32 12046,3727.45 12046,3707.32 C 12046,3686.75 12023.6,3660.32 12023.6,3660.32 C 12023.6,3660.32 12203.6,3707.32 12203.6,3707.32 C 12203.6,3707.32 12203.6,3707.32 12203.6,3707.32 " />
<path stroke="none" fill="#000000" transform="matrix(0.05 0 0 0.05 -61 -77)" d="M 12893.6,3727.79 L 12899.5,3724.4 L 12905.3,3727.79 L 12905.3,4009.02 L 12893.3,4015.95 L 12893.6,3727.79 Z " />
<path stroke="none" fill="#000000" transform="matrix(0.05 0 0 0.05 -61 -77)" d="M 12945.3,3754.33 L 12957.3,3754.33 L 12957.3,3982.47 L 12945.3,3982.47 L 12945.3,3754.33 Z " />
<path stroke="none" fill="#000000" transform="matrix(0.05 0 0 0.05 -61 -77)" d="M 12893.3,4015.95 L 12905.3,4009.02 L 13148.9,4149.64 L 13148.9,4163.5 L 12893.3,4015.95 Z " />
<path stroke="none" fill="#000000" transform="matrix(0.05 0 0 0.05 -61 -77)" d="M 13148.9,4163.5 L 13148.9,4149.64 L 13392.5,4009.02 L 13398.3,4012.4 L 13397.5,4019.62 L 13148.9,4163.5 Z " />
<path stroke="none" fill="#000000" transform="matrix(0.05 0 0 0.05 -61 -77)" d="M 13151.9,4101.74 L 13145.9,4091.35 L 13343.5,3977.28 L 13349.5,3987.67 L 13151.9,4101.74 Z " />
<path stroke="none" fill="#000000" transform="matrix(0.05 0 0 0.05 -61 -77)" d="M 13404.2,4010.05 L 13398.3,4012.4 L 13392.5,4009.02 L 13392.5,3727.79 L 13398.3,3724.4 L 13404.2,3726.85 L 13404.2,4010.05 Z " />
<path stroke="none" fill="#000000" transform="matrix(0.05 0 0 0.05 -61 -77)" d="M 13397.4,3717.14 L 13398.3,3724.4 L 13392.5,3727.79 L 13148.9,3587.17 L 13148.9,3573.3 L 13397.4,3717.14 Z " />
<path stroke="none" fill="#000000" transform="matrix(0.05 0 0 0.05 -61 -77)" d="M 13349.5,3749.14 L 13343.5,3759.53 L 13145.9,3645.46 L 13151.9,3635.07 L 13349.5,3749.14 Z " />
<path stroke="none" fill="#000000" transform="matrix(0.05 0 0 0.05 -61 -77)" d="M 13148.9,3573.3 L 13148.9,3587.17 L 12905.3,3727.79 L 12899.5,3724.4 L 12899.5,3717.64 L 13148.9,3573.3 Z " />
<text x="0" y="0" stroke="none" fill="#000000" transform="matrix(0.05 0 0 0.05 615.209 137.384)" font-style="normal" font-weight="normal" font-size="200px" font-family="Arial" >
O</text>
<path stroke="none" fill="#000000" transform="matrix(0.05 0 0 0.05 -61 -77)" d="M 13397.5,4019.62 L 13398.3,4012.4 L 13404.2,4010.05 L 13532.1,4137.7 L 13523.6,4146.18 L 13397.5,4019.62 Z " />
<path stroke="none" fill="#000000" transform="matrix(0.05 0 0 0.05 -61 -77)" d="M 13702.8,4222.05 L 13702.8,4210.05 L 13887.4,4210.21 L 13892.4,4222.21 L 13702.8,4222.05 Z " />
<path stroke="none" fill="#000000" transform="matrix(0.05 0 0 0.05 -61 -77)" d="M 13892.4,4222.21 L 13887.4,4210.21 L 14087.7,4009.96 L 14093.6,4012.4 L 14094.6,4019.67 L 13892.4,4222.21 Z " />
<path stroke="none" fill="#000000" transform="matrix(0.05 0 0 0.05 -61 -77)" d="M 14099.5,4009.02 L 14093.6,4012.4 L 14087.7,4009.96 L 14087.7,3726.85 L 14093.6,3724.4 L 14099.5,3727.79 L 14099.5,4009.02 Z " />
<path stroke="none" fill="#000000" transform="matrix(0.05 0 0 0.05 -61 -77)" d="M 14151.4,3982.47 L 14139.4,3982.47 L 14139.4,3754.33 L 14151.4,3754.33 L 14151.4,3982.47 Z " />
<path stroke="none" fill="#000000" transform="matrix(0.05 0 0 0.05 -61 -77)" d="M 14094.6,3717.14 L 14093.6,3724.4 L 14087.7,3726.85 L 13887.5,3526.65 L 13890,3520.76 L 13894.7,3517.09 L 14094.6,3717.14 Z " />
<path stroke="none" fill="#000000" transform="matrix(0.05 0 0 0.05 -61 -77)" d="M 13880.3,3515.16 L 13890,3520.76 L 13887.5,3526.65 L 13604.4,3526.65 L 13602,3520.76 L 13611.6,3515.16 L 13880.3,3515.16 Z " />
<path stroke="none" fill="#000000" transform="matrix(0.05 0 0 0.05 -61 -77)" d="M 13868.5,3566.6 L 13868.5,3578.6 L 13623.4,3578.6 L 13623.4,3566.6 L 13868.5,3566.6 Z " />
<path stroke="none" fill="#000000" transform="matrix(0.05 0 0 0.05 -61 -77)" d="M 13597.2,3517.09 L 13602,3520.76 L 13604.4,3526.65 L 13404.2,3726.85 L 13398.3,3724.4 L 13397.4,3717.14 L 13597.2,3517.09 Z " />
<path stroke="none" fill="#000000" transform="matrix(0.05 0 0 0.05 -61 -77)" d="M 14094.6,4019.67 L 14093.6,4012.4 L 14099.5,4009.02 L 14343,4149.64 L 14343,4163.5 L 14094.6,4019.67 Z " />
<path stroke="none" fill="#000000" transform="matrix(0.05 0 0 0.05 -61 -77)" d="M 14343,4163.5 L 14343,4149.64 L 14586.6,4009.02 L 14592.4,4012.4 L 14592.5,4019.12 L 14343,4163.5 Z " />
<path stroke="none" fill="#000000" transform="matrix(0.05 0 0 0.05 -61 -77)" d="M 14346,4101.74 L 14340,4091.35 L 14537.6,3977.28 L 14543.6,3987.67 L 14346,4101.74 Z " />
<path stroke="none" fill="#000000" transform="matrix(0.05 0 0 0.05 -61 -77)" d="M 14598.3,4009.12 L 14592.4,4012.4 L 14586.6,4009.02 L 14586.6,3727.79 L 14598.6,3720.85 L 14598.3,4009.12 Z " />
<path stroke="none" fill="#000000" transform="matrix(0.05 0 0 0.05 -61 -77)" d="M 14598.6,3720.85 L 14586.6,3727.79 L 14343,3587.17 L 14343,3573.3 L 14598.6,3720.85 Z " />
<path stroke="none" fill="#000000" transform="matrix(0.05 0 0 0.05 -61 -77)" d="M 14543.6,3749.14 L 14537.6,3759.53 L 14340,3645.46 L 14346,3635.07 L 14543.6,3749.14 Z " />
<path stroke="none" fill="#000000" transform="matrix(0.05 0 0 0.05 -61 -77)" d="M 14343,3573.3 L 14343,3587.17 L 14099.5,3727.79 L 14093.6,3724.4 L 14094.6,3717.14 L 14343,3573.3 Z " />
<path stroke="none" fill="#000000" transform="matrix(0.05 0 0 0.05 -61 -77)" d="M 13894.7,3517.09 L 13890,3520.76 L 13880.3,3515.16 L 13746,3282.53 L 13746,3258.41 L 13894.7,3517.09 Z " />
<path stroke="none" fill="#000000" transform="matrix(0.05 0 0 0.05 -61 -77)" d="M 13746,3258.41 L 13746,3282.53 L 13611.6,3515.16 L 13602,3520.76 L 13597.2,3517.09 L 13746,3258.41 Z " />
<text x="0" y="0" stroke="none" fill="#000000" transform="matrix(0.05 0 0 0.05 622.409 75.7486)" font-style="normal" font-weight="normal" font-size="200px" font-family="Arial" >
O</text>
<path stroke="none" fill="#000000" transform="matrix(0.05 0 0 0.05 -61 -77)" d="M 13726,3316.24 L 13714,3316.24 L 13714,3090.49 L 13726,3090.49 L 13726,3316.24 Z " />
<path stroke="none" fill="#000000" transform="matrix(0.05 0 0 0.05 -61 -77)" d="M 13777.9,3316.24 L 13765.9,3316.24 L 13765.9,3090.49 L 13777.9,3090.49 L 13777.9,3316.24 Z " />
<path stroke="none" fill="#000000" transform="matrix(0.05 0 0 0.05 -61 -77)" d="M 12899.5,3717.64 L 12899.5,3724.4 L 12893.6,3727.79 L 12650.1,3587.17 L 12650.1,3580.4 L 12655.9,3577.02 L 12899.5,3717.64 Z " />
<path stroke="none" fill="#000000" transform="matrix(0.05 0 0 0.05 -61 -77)" d="M 12638.9,3580.4 L 12650.1,3580.4 L 12650.1,3587.17 L 12403.6,3729.6 L 12397.6,3719.21 L 12638.9,3580.4 Z " />
<path stroke="none" fill="#000000" transform="matrix(0.05 0 0 0.05 -61 -77)" d="M 12655.9,3577.02 L 12650.1,3580.4 L 12644.5,3570.71 L 12644.1,3292.4 L 12656.1,3292.4 L 12655.9,3577.02 Z " />
<path stroke="none" fill="#000000" transform="matrix(0.05 0 0 0.05 -61 -77)" d="M 12644.5,3570.71 L 12650.1,3580.4 L 12638.9,3580.4 L 12397.6,3441.6 L 12403.6,3431.21 L 12644.5,3570.71 Z " />
<text x="0" y="0" stroke="none" fill="#000000" transform="matrix(0.05 0 0 0.05 677.203 134.402)" font-style="normal" font-weight="normal" font-size="200px" font-family="Arial" >
OH</text>
<path stroke="none" fill="#000000" transform="matrix(0.05 0 0 0.05 -61 -77)" d="M 14592.5,4019.12 L 14592.4,4012.4 L 14598.3,4009.12 L 14755.3,4099.51 L 14749.3,4109.9 L 14592.5,4019.12 Z " />
</svg>
